<svg width="142" height="56" viewBox="0 0 142 56" fill="none" xmlns="http://www.w3.org/2000/svg">
<g filter="url(#filter0_b_8_6328)">
<rect width="142" height="56" rx="28" fill="#4B164C"/>
<rect x="0.75" y="0.75" width="140.5" height="54.5" rx="27.25" stroke="#DD88CF" stroke-width="1.5"/>
<path opacity="0.3" d="M48 28C48 39.0457 39.0457 48 28 48C16.9543 48 8 39.0457 8 28C8 16.9543 16.9543 8 28 8C39.0457 8 48 16.9543 48 28ZM12 28C12 36.8366 19.1634 44 28 44C36.8366 44 44 36.8366 44 28C44 19.1634 36.8366 12 28 12C19.1634 12 12 19.1634 12 28Z" fill="#DD88CF"/>
<path d="M28 10C28 8.89543 28.8977 7.98963 29.9967 8.0999C33.5099 8.45238 36.8801 9.73037 39.7557 11.8197C43.1727 14.3022 45.716 17.8028 47.0211 21.8197C48.3263 25.8366 48.3263 30.1635 47.0211 34.1804C45.716 38.1972 43.1726 41.6978 39.7557 44.1804C36.3387 46.6629 32.2235 48 28 48C23.7764 48 19.6612 46.6629 16.2442 44.1803C12.8273 41.6977 10.284 38.1971 8.97885 34.1803C7.88045 30.7997 7.70647 27.1996 8.45688 23.7494C8.69164 22.6701 9.8305 22.0963 10.881 22.4376C11.9315 22.779 12.4931 23.9066 12.2854 24.9915C11.78 27.6314 11.9459 30.3675 12.7831 32.9442C13.8272 36.1577 15.8618 38.9582 18.5954 40.9442C21.329 42.9303 24.6211 44 28 44C31.3788 44 34.671 42.9303 37.4045 40.9443C40.1381 38.9582 42.1728 36.1578 43.2169 32.9443C44.261 29.7308 44.261 26.2692 43.2169 23.0557C42.1728 19.8422 40.1381 17.0418 37.4046 15.0557C35.2127 13.4633 32.6617 12.4599 29.9949 12.1248C28.8989 11.9871 28 11.1046 28 10Z" fill="#DD88CF"/>
<path d="M24.6224 27.166C24.9153 27.1543 25.1243 27.0762 25.2493 26.9316C25.3743 26.7832 25.4368 26.5566 25.4368 26.252V25.7012C25.4368 25.3809 25.3665 25.1465 25.2259 24.998C25.0853 24.8496 24.8568 24.7754 24.5403 24.7754H22.3548C22.0384 24.7754 21.8099 24.8496 21.6693 24.998C21.5286 25.1465 21.4583 25.3809 21.4583 25.7012V26.252C21.4583 26.5566 21.5208 26.7832 21.6458 26.9316C21.7747 27.0762 21.9837 27.1543 22.2728 27.166H24.6224ZM24.6575 30.8223C24.9778 30.8223 25.2083 30.748 25.3489 30.5996C25.4896 30.4512 25.5599 30.2188 25.5599 29.9023V29.252C25.5599 28.9316 25.4896 28.6992 25.3489 28.5547C25.2083 28.4102 24.9778 28.3379 24.6575 28.3379H22.2376C21.9173 28.3379 21.6868 28.4102 21.5462 28.5547C21.4056 28.6992 21.3353 28.9316 21.3353 29.252V29.9023C21.3353 30.2188 21.4056 30.4512 21.5462 30.5996C21.6868 30.748 21.9173 30.8223 22.2376 30.8223H24.6575ZM22.2025 32C20.8392 32 20.1575 31.3203 20.1575 29.9609V29.5391C20.1575 29.0156 20.2513 28.5957 20.4388 28.2793C20.6263 27.9629 20.8978 27.752 21.2532 27.6465C20.9368 27.498 20.6946 27.2715 20.5267 26.9668C20.3626 26.6582 20.2806 26.2676 20.2806 25.7949V25.6426C20.2806 24.2793 20.9603 23.5977 22.3196 23.5977H24.5755C25.9349 23.5977 26.6146 24.2793 26.6146 25.6426V25.7949C26.6146 26.2676 26.5306 26.6582 26.3626 26.9668C26.1985 27.2715 25.9583 27.498 25.6419 27.6465C25.9974 27.752 26.2689 27.9629 26.4564 28.2793C26.6439 28.5957 26.7376 29.0156 26.7376 29.5391V29.9609C26.7376 31.3203 26.0579 32 24.6985 32H22.2025ZM35.263 30.7988C35.263 30.9629 35.2318 31.1191 35.1693 31.2676C35.1068 31.4121 35.0208 31.5391 34.9114 31.6484C34.8021 31.7578 34.6732 31.8438 34.5247 31.9062C34.3802 31.9688 34.2259 32 34.0618 32H29.8607C29.6966 32 29.5403 31.9688 29.3919 31.9062C29.2474 31.8438 29.1204 31.7578 29.011 31.6484C28.9017 31.5391 28.8157 31.4121 28.7532 31.2676C28.6907 31.1191 28.6595 30.9629 28.6595 30.7988V24.7988C28.6595 24.6348 28.6907 24.4805 28.7532 24.3359C28.8157 24.1875 28.9017 24.0605 29.011 23.9551C29.1204 23.8457 29.2474 23.7598 29.3919 23.6973C29.5403 23.6309 29.6966 23.5977 29.8607 23.5977H34.0618C34.2259 23.5977 34.3802 23.6309 34.5247 23.6973C34.6732 23.7598 34.8021 23.8457 34.9114 23.9551C35.0208 24.0605 35.1068 24.1875 35.1693 24.3359C35.2318 24.4805 35.263 24.6348 35.263 24.7988V30.7988ZM29.8607 24.7988V30.7988H34.0618V24.7988H29.8607ZM26.6614 42.7324C26.6614 42.8965 26.6302 43.0527 26.5677 43.2012C26.5052 43.3457 26.4193 43.4727 26.3099 43.582C26.2005 43.6914 26.0735 43.7773 25.929 43.8398C25.7845 43.9023 25.6302 43.9336 25.4661 43.9336H24.1185C23.9544 43.9336 23.7982 43.9023 23.6497 43.8398C23.5052 43.7773 23.3782 43.6914 23.2689 43.582C23.1634 43.4727 23.0775 43.3457 23.011 43.2012C22.9485 43.0527 22.9173 42.8965 22.9173 42.7324V40.7988C22.9173 40.6348 22.9485 40.4805 23.011 40.3359C23.0775 40.1875 23.1634 40.0605 23.2689 39.9551C23.3782 39.8457 23.5052 39.7598 23.6497 39.6973C23.7982 39.6309 23.9544 39.5977 24.1185 39.5977H25.4661C25.6302 39.5977 25.7845 39.6309 25.929 39.6973C26.0735 39.7598 26.2005 39.8457 26.3099 39.9551C26.4193 40.0605 26.5052 40.1875 26.5677 40.3359C26.6302 40.4805 26.6614 40.6348 26.6614 40.7988V42.7324ZM24.2884 48L30.2767 39.5977H31.3782L25.39 48H24.2884ZM23.9485 40.6348V42.9023H25.6302V40.6348H23.9485ZM32.7493 46.7988C32.7493 46.9629 32.7181 47.1191 32.6556 47.2676C32.5931 47.4121 32.5071 47.5391 32.3978 47.6484C32.2884 47.7578 32.1595 47.8438 32.011 47.9062C31.8665 47.9688 31.7122 48 31.5482 48H30.2005C30.0364 48 29.8821 47.9688 29.7376 47.9062C29.5931 47.8438 29.4661 47.7578 29.3568 47.6484C29.2474 47.5391 29.1614 47.4121 29.0989 47.2676C29.0364 47.1191 29.0052 46.9629 29.0052 46.7988V44.8652C29.0052 44.7012 29.0364 44.5469 29.0989 44.4023C29.1614 44.2578 29.2474 44.1309 29.3568 44.0215C29.4661 43.9121 29.5931 43.8262 29.7376 43.7637C29.8821 43.7012 30.0364 43.6699 30.2005 43.6699H31.5482C31.7122 43.6699 31.8665 43.7012 32.011 43.7637C32.1595 43.8262 32.2884 43.9121 32.3978 44.0215C32.5071 44.1309 32.5931 44.2578 32.6556 44.4023C32.7181 44.5469 32.7493 44.7012 32.7493 44.8652V46.7988ZM30.0364 44.7012V46.9688H31.7181V44.7012H30.0364Z" fill="white"/>
<path d="M69.0234 33L63.7988 22.7363V33H61.7969V18.9961H63.9844L69.3164 29.543L74.6582 18.9961H76.8359V33H74.8438V22.7363L69.6191 33H69.0234ZM80.2539 28.459C80.2539 28.1921 80.3027 27.9447 80.4004 27.7168C80.5046 27.4824 80.6413 27.2773 80.8105 27.1016C80.9863 26.9258 81.1914 26.7891 81.4258 26.6914C81.6602 26.5872 81.9076 26.5352 82.168 26.5352H87.1289V24.5234H80.8496V22.5996H87.1289C87.3958 22.5996 87.6465 22.6517 87.8809 22.7559C88.1152 22.8535 88.3171 22.9902 88.4863 23.166C88.6621 23.3353 88.7988 23.5371 88.8965 23.7715C89.0007 24.0059 89.0527 24.2565 89.0527 24.5234V33H87.1289V31.2422C87.1094 31.4831 87.0443 31.7109 86.9336 31.9258C86.8229 32.1406 86.6797 32.3294 86.5039 32.4922C86.3346 32.6484 86.1393 32.7721 85.918 32.8633C85.6966 32.9544 85.4622 33 85.2148 33H82.168C81.9076 33 81.6602 32.9512 81.4258 32.8535C81.1914 32.7493 80.9863 32.6126 80.8105 32.4434C80.6413 32.2676 80.5046 32.0625 80.4004 31.8281C80.3027 31.5938 80.2539 31.3431 80.2539 31.0762V28.459ZM82.168 31.0762H87.1289V28.459H82.168V31.0762ZM91.6602 22.5996H94.1992V19.3965H96.123V22.5996H99.541V24.5234H96.123V31.0762H99.541V33H96.123C95.8626 33 95.6152 32.9512 95.3809 32.8535C95.1465 32.7493 94.9414 32.6126 94.7656 32.4434C94.5898 32.2676 94.4499 32.0625 94.3457 31.8281C94.248 31.5938 94.1992 31.3431 94.1992 31.0762V24.5234H91.6602V22.5996ZM104.668 24.5234V31.0762H109.629V29.3184H111.553V31.0762C111.553 31.3431 111.501 31.5938 111.396 31.8281C111.299 32.0625 111.162 32.2676 110.986 32.4434C110.817 32.6126 110.615 32.7493 110.381 32.8535C110.146 32.9512 109.896 33 109.629 33H104.668C104.408 33 104.16 32.9512 103.926 32.8535C103.691 32.7493 103.486 32.6126 103.311 32.4434C103.141 32.2676 103.005 32.0625 102.9 31.8281C102.803 31.5938 102.754 31.3431 102.754 31.0762V24.5234C102.754 24.2565 102.803 24.0059 102.9 23.7715C103.005 23.5371 103.141 23.3353 103.311 23.166C103.486 22.9902 103.691 22.8535 103.926 22.7559C104.16 22.6517 104.408 22.5996 104.668 22.5996H109.629C109.896 22.5996 110.146 22.6517 110.381 22.7559C110.615 22.8535 110.817 22.9902 110.986 23.166C111.162 23.3353 111.299 23.5371 111.396 23.7715C111.501 24.0059 111.553 24.2565 111.553 24.5234V26.2812H109.629V24.5234H104.668ZM123.965 33H122.041V24.5234H116.68V33H114.766V18.5957H116.68V24.4355C116.693 24.1816 116.751 23.944 116.855 23.7227C116.96 23.4948 117.096 23.2995 117.266 23.1367C117.441 22.9674 117.643 22.8372 117.871 22.7461C118.099 22.6484 118.343 22.5996 118.604 22.5996H122.041C122.308 22.5996 122.559 22.6517 122.793 22.7559C123.027 22.8535 123.229 22.9902 123.398 23.166C123.574 23.3353 123.711 23.5371 123.809 23.7715C123.913 24.0059 123.965 24.2565 123.965 24.5234V33Z" fill="white"/>
</g>
<defs>
<filter id="filter0_b_8_6328" x="-10" y="-10" width="162" height="76" filterUnits="userSpaceOnUse" color-interpolation-filters="sRGB">
<feFlood flood-opacity="0" result="BackgroundImageFix"/>
<feGaussianBlur in="BackgroundImageFix" stdDeviation="5"/>
<feComposite in2="SourceAlpha" operator="in" result="effect1_backgroundBlur_8_6328"/>
<feBlend mode="normal" in="SourceGraphic" in2="effect1_backgroundBlur_8_6328" result="shape"/>
</filter>
</defs>
</svg>
