<svg width="100" height="40" viewBox="0 0 100 40" fill="none" xmlns="http://www.w3.org/2000/svg">
<g filter="url(#filter0_b_1104_5742)">
<rect width="100" height="40" rx="20" fill="white" fill-opacity="0.2"/>
<rect x="0.75" y="0.75" width="98.5" height="38.5" rx="19.25" stroke="white" stroke-opacity="0.4" stroke-width="1.5"/>
<g clip-path="url(#clip0_1104_5742)">
<path d="M26.0001 14L21.6668 26C21.6375 26.0638 21.5906 26.1179 21.5315 26.1558C21.4724 26.1938 21.4037 26.2139 21.3334 26.2139C21.2632 26.2139 21.1945 26.1938 21.1354 26.1558C21.0763 26.1179 21.0294 26.0638 21.0001 26L18.6668 21.3333L14.0001 19C13.9363 18.9708 13.8822 18.9238 13.8443 18.8647C13.8064 18.8056 13.7862 18.7369 13.7862 18.6667C13.7862 18.5965 13.8064 18.5277 13.8443 18.4686C13.8822 18.4095 13.9363 18.3626 14.0001 18.3333L26.0001 14Z" stroke="white" stroke-width="2" stroke-linecap="round" stroke-linejoin="round"/>
</g>
<path d="M36.8828 14.3984V15.8438H35.2812V14.3984C35.2812 14.1797 35.3229 13.974 35.4062 13.7812C35.4896 13.5833 35.6042 13.4141 35.75 13.2734C35.8958 13.1276 36.0651 13.013 36.2578 12.9297C36.4557 12.8411 36.6641 12.7969 36.8828 12.7969H41.9531C42.1719 12.7969 42.3776 12.8411 42.5703 12.9297C42.7682 13.013 42.9375 13.1276 43.0781 13.2734C43.224 13.4141 43.3385 13.5833 43.4219 13.7812C43.5104 13.974 43.5547 14.1797 43.5547 14.3984V16.4453C43.5547 16.6641 43.5339 16.8594 43.4922 17.0312C43.4505 17.2031 43.3828 17.3594 43.2891 17.5C43.2005 17.6354 43.0859 17.7578 42.9453 17.8672C42.8047 17.9766 42.6328 18.0807 42.4297 18.1797L36.8828 20.7812V22.3984H42.1562V20.9609H43.7578V24H35.2812V21.0547C35.2812 20.8359 35.3021 20.6406 35.3438 20.4688C35.3906 20.2969 35.4583 20.1432 35.5469 20.0078C35.6354 19.8724 35.75 19.75 35.8906 19.6406C36.0365 19.526 36.2057 19.4219 36.3984 19.3281L41.9531 16.7188V14.3984H36.8828ZM46.3281 21.6641H48.6641V24H46.3281V21.6641ZM59.2031 21.2812C59.1875 22.1927 58.9583 22.875 58.5156 23.3281C58.0729 23.776 57.3958 24 56.4844 24H53.4766C51.6589 24 50.75 23.0938 50.75 21.2812V20.6094H52.3203V21.2031C52.3203 21.625 52.4141 21.9349 52.6016 22.1328C52.7891 22.3307 53.0964 22.4297 53.5234 22.4297H56.4297C56.8568 22.4297 57.1641 22.3307 57.3516 22.1328C57.5391 21.9349 57.6328 21.625 57.6328 21.2031V19.6953C57.6328 19.2734 57.5391 18.9661 57.3516 18.7734C57.1641 18.5755 56.8568 18.4766 56.4297 18.4766H51.0703V12.7969H58.9141V14.3984H52.6719V16.9141H56.4844C57.401 16.9141 58.0833 17.138 58.5312 17.5859C58.9792 18.0286 59.2031 18.7109 59.2031 19.6328V21.2812ZM71.75 24L67.7812 20.4453V24H66.25V12.4766H67.7812V18.9609L71.4297 15.6797H73.5938L69.125 19.6953L73.9141 24H71.75ZM81.625 17.2188V24H80.0859V17.2188H76.5625V24H75.0312V15.6797H76.5625V17.1484C76.5729 16.9453 76.6198 16.7552 76.7031 16.5781C76.7865 16.3958 76.8958 16.2396 77.0312 16.1094C77.1719 15.974 77.3333 15.8698 77.5156 15.7969C77.6979 15.7188 77.8932 15.6797 78.1016 15.6797H80.0859C80.2891 15.6797 80.4818 15.7188 80.6641 15.7969C80.8464 15.8698 81.0078 15.974 81.1484 16.1094C81.2891 16.2396 81.401 16.3958 81.4844 16.5781C81.5729 16.7552 81.6198 16.9453 81.625 17.1484C81.6354 16.9453 81.6797 16.7552 81.7578 16.5781C81.8411 16.3958 81.9505 16.2396 82.0859 16.1094C82.2266 15.974 82.388 15.8698 82.5703 15.7969C82.7526 15.7188 82.9479 15.6797 83.1562 15.6797H85.1406C85.3542 15.6797 85.5547 15.7214 85.7422 15.8047C85.9297 15.8828 86.0911 15.9922 86.2266 16.1328C86.3672 16.2682 86.4766 16.4297 86.5547 16.6172C86.638 16.8047 86.6797 17.0052 86.6797 17.2188V24H85.1406V17.2188H81.625Z" fill="white"/>
</g>
<defs>
<filter id="filter0_b_1104_5742" x="-16" y="-16" width="132" height="72" filterUnits="userSpaceOnUse" color-interpolation-filters="sRGB">
<feFlood flood-opacity="0" result="BackgroundImageFix"/>
<feGaussianBlur in="BackgroundImageFix" stdDeviation="8"/>
<feComposite in2="SourceAlpha" operator="in" result="effect1_backgroundBlur_1104_5742"/>
<feBlend mode="normal" in="SourceGraphic" in2="effect1_backgroundBlur_1104_5742" result="shape"/>
</filter>
<clipPath id="clip0_1104_5742">
<rect width="16" height="16" fill="white" transform="translate(12 12)"/>
</clipPath>
</defs>
</svg>
